<?xml version="1.0" encoding="UTF-8" standalone="no"?>
<svg
   xmlns:dc="http://purl.org/dc/elements/1.1/"
   xmlns:cc="http://creativecommons.org/ns#"
   xmlns:rdf="http://www.w3.org/1999/02/22-rdf-syntax-ns#"
   xmlns:svg="http://www.w3.org/2000/svg"
   xmlns="http://www.w3.org/2000/svg"
   xmlns:sodipodi="http://sodipodi.sourceforge.net/DTD/sodipodi-0.dtd"
   xmlns:inkscape="http://www.inkscape.org/namespaces/inkscape"
   aria-hidden="true"
   focusable="false"
   data-prefix="fas"
   data-icon="bars"
   class="svg-inline--fa fa-bars fa-w-14"
   role="img"
   viewBox="0 0 448 512"
   version="1.1"
   id="svg3758"
   sodipodi:docname="bars.svg"
   inkscape:version="0.92.5 (2060ec1f9f, 2020-04-08)">
  <metadata
     id="metadata3764">
    <rdf:RDF>
      <cc:Work
         rdf:about="">
        <dc:format>image/svg+xml</dc:format>
        <dc:type
           rdf:resource="http://purl.org/dc/dcmitype/StillImage" />
      </cc:Work>
    </rdf:RDF>
  </metadata>
  <defs
     id="defs3762" />
  <sodipodi:namedview
     pagecolor="#ffffff"
     bordercolor="#666666"
     borderopacity="1"
     objecttolerance="10"
     gridtolerance="10"
     guidetolerance="10"
     inkscape:pageopacity="0"
     inkscape:pageshadow="2"
     inkscape:window-width="1366"
     inkscape:window-height="715"
     id="namedview3760"
     showgrid="false"
     inkscape:zoom="1.0664062"
     inkscape:cx="224"
     inkscape:cy="256"
     inkscape:window-x="-8"
     inkscape:window-y="-8"
     inkscape:window-maximized="1"
     inkscape:current-layer="svg3758" />
  <path
     fill="currentColor"
     d="M16 132h416c8.837 0 16-7.163 16-16V76c0-8.837-7.163-16-16-16H16C7.163 60 0 67.163 0 76v40c0 8.837 7.163 16 16 16zm0 160h416c8.837 0 16-7.163 16-16v-40c0-8.837-7.163-16-16-16H16c-8.837 0-16 7.163-16 16v40c0 8.837 7.163 16 16 16zm0 160h416c8.837 0 16-7.163 16-16v-40c0-8.837-7.163-16-16-16H16c-8.837 0-16 7.163-16 16v40c0 8.837 7.163 16 16 16z"
     id="path3756" />
  <path
     style="fill:#666666;stroke-width:0.93772894"
     d="m 8.649833,449.64433 c -1.7281591,-0.85147 -4.2600272,-3.23742 -5.6263733,-5.30211 l -2.48426556,-3.75398 v -24.44943 c 0,-23.88316 0.0499622,-24.52978 2.15715776,-27.91865 1.1864368,-1.90807 3.5571236,-4.33444 5.2681935,-5.39194 l 3.1110346,-1.92273 h 212.84954 212.84954 l 3.16398,2.13221 c 1.74019,1.17271 4.14237,3.58403 5.33818,5.35849 2.15803,3.2023 2.17213,3.4125 1.89777,28.27735 -0.26171,23.71771 -0.38083,25.19186 -2.2381,27.69645 -1.07893,1.45497 -3.35672,3.59485 -5.06175,4.75528 l -3.10008,2.10989 -212.49135,-0.0213 C 28.688482,451.19416 11.542092,451.06936 8.649833,449.64433 Z"
     id="path3772"
     inkscape:connector-curvature="0" />
  <path
     style="fill:#666666;stroke-width:0.93772894"
     d="m 9.9164835,290.06202 c -8.7635568,-4.0345 -9.75298924,-7.38725 -9.80499428,-33.2248 -0.0243246,-12.08513 0.38678158,-22.14873 1.00510718,-24.60432 1.2556754,-4.98674 6.6958184,-10.36312 11.3226916,-11.18998 1.706963,-0.30505 98.081492,-0.43439 214.165632,-0.28742 l 211.06206,0.26721 3.54292,2.70237 c 5.85176,4.46342 6.15713,6.07378 6.15713,32.4697 0,26.65642 -0.45705,28.73722 -7.23824,32.95321 l -3.54564,2.20439 -211.45788,0.21823 C 21.463266,291.78079 13.529113,291.72517 9.9164835,290.06202 Z"
     id="path3774"
     inkscape:connector-curvature="0" />
  <path
     style="fill:#666666;stroke-width:0.93772894"
     d="M 9.9164835,130.14376 C 5.8858736,128.33999 2.2809779,124.08904 1.1006548,119.74799 -0.20536986,114.94462 -0.24648046,76.853109 1.0493246,72.187363 2.39356,67.347235 5.9708231,63.421059 10.646447,61.654173 14.235053,60.298064 34.329295,60.182187 225.59414,60.414639 l 210.98901,0.256423 3.54564,2.204387 c 6.78119,4.215996 7.23824,6.296798 7.23824,32.95321 0,26.395921 -0.30537,28.006291 -6.15713,32.469701 l -3.54293,2.70237 -212.46865,0.20099 C 49.107449,131.3683 12.248011,131.18716 9.9164835,130.14376 Z"
     id="path3776"
     inkscape:connector-curvature="0" />
</svg>
